PathFileType	4	(X/Y/Z)	RBDS09\RBDS09runT25.trc
DataRate	CameraRate	NumFrames	NumMarkers	Units	OrigDataRate	OrigDataStartFrame	OrigNumFrames
150.000000	150.000000	4	33	mm	150.000000	1687	4500
Frame#	Time	L.ASIS			L.Heel.Bottom			L.Heel.Lateral			L.Heel.Top			L.Iliac.Crest			L.MT1			L.MT5			L.PSIS			L.Shank.Bottom.Lateral			L.Shank.Bottom.Medial			L.Shank.Top.Lateral			L.Shank.Top.Medial			L.Thigh.Bottom.Lateral			L.Thigh.Bottom.Medial			L.Thigh.Top.Lateral			L.Thigh.Top.Medial			R.ASIS			R.ASY			R.Heel.Bottom			R.Heel.Lateral			R.Heel.Top			R.Iliac.Crest			R.MT1			R.MT5			R.PSIS			R.Shank.Bottom.Lateral			R.Shank.Bottom.Medial			R.Shank.Top.Lateral			R.Shank.Top.Medial			R.Thigh.Bottom.Lateral			R.Thigh.Bottom.Medial			R.Thigh.Top.Lateral			R.Thigh.Top.Medial			
		X1	Y1	Z1	X2	Y2	Z2	X3	Y3	Z3	X4	Y4	Z4	X5	Y5	Z5	X6	Y6	Z6	X7	Y7	Z7	X8	Y8	Z8	X9	Y9	Z9	X10	Y10	Z10	X11	Y11	Z11	X12	Y12	Z12	X13	Y13	Z13	X14	Y14	Z14	X15	Y15	Z15	X16	Y16	Z16	X17	Y17	Z17	X18	Y18	Z18	X19	Y19	Z19	X20	Y20	Z20	X21	Y21	Z21	X22	Y22	Z22	X23	Y23	Z23	X24	Y24	Z24	X25	Y25	Z25	X26	Y26	Z26	X27	Y27	Z27	X28	Y28	Z28	X29	Y29	Z29	X30	Y30	Z30	X31	Y31	Z31	X32	Y32	Z32	X33	Y33	Z33	

1688	11.24666666666667	2249.569953939424	1016.099715132473	902.6693179579864	2138.407793524363	137.398231460921	967.4998915222939	2166.095017698301	145.7300877310191	918.655104213572	2157.057428670867	182.6576952468183	960.7935712415493	2179.014804916141	1084.21057094947	863.976341648323	2351.053225181307	98.71775649666816	963.0084791233126	2294.566110002086	96.55504026366008	868.0300163801032	2093.210295054348	1041.28271959794	976.6189540135465	2221.782437285144	268.5260908173149	886.213901829129	2193.85342211777	277.4468634828553	931.3815012678219	2231.975564864832	347.5452856442705	874.2403125920233	2204.66571957868	357.1155265538367	919.9242869345736	2274.282197455835	666.2465944880418	850.8981857792725	2226.547036510387	638.5202332218985	899.462325183615	2213.096668496574	758.0859507457125	846.6361526744232	2169.79602286618	732.6703328342646	894.935393217277	2253.899854449279	988.9973761164272	1132.850568548851	1890.156132177781	123.8806008790326	1091.457279912107	1729.724113437884	196.721078594064	1042.858284323331	1758.183282837267	185.7243230963075	1094.617942489986	1768.071184683881	225.0545569495273	1053.014663135459	2222.47836454412	1056.512720190991	1167.278870346702	1896.518500626968	67.31929708231362	1039.614698129815	1841.372935979874	74.54202178793938	1136.512169036224	2097.180107039763	1035.820757253374	1051.525698602036	1832.008596388513	283.8605725756784	1111.55613720647	1821.278949663925	296.9964665324156	1062.889781483203	1862.027974955732	362.4882026065956	1123.97159402236	1849.526695312205	372.0902546813244	1072.782489402391	2059.876345068562	628.6693837402896	1156.315709451241	2004.927909795031	646.6986551307709	1111.303088394581	2082.475394692447	736.0024787596134	1167.63425499782	2032.776441615157	752.3579703465041	1122.728097662027	
1689	11.25333333333333	2250.281845091704	1018.093057877524	902.4575886309731	2157.254813041266	124.436139786149	967.3816082753428	2184.691987940841	134.1484272495259	918.6444585558689	2173.226740413228	170.7022664047999	960.5013857234163	2179.834790179551	1087.427681987076	864.1355956316268	2371.669946763853	98.51642306714641	964.4023754739956	2316.095335279876	92.2904420890999	869.0952656869969	2094.50845292368	1043.877965576133	977.067773647924	2232.831996726657	261.0344829138779	886.6436581821888	2204.74502071681	268.3597407035931	931.9913342598816	2238.674537248355	340.3735621609487	874.6287577511415	2211.110612898507	348.4159820881518	920.4854406310775	2269.42107351088	665.2060941006819	852.0871159294339	2221.475230427962	638.7521876678846	901.122900536736	2210.283044891377	758.382496161321	847.6540917494387	2166.800375378043	734.2207846010668	896.366987780608	2255.740202419222	991.4933255417784	1132.034320791662	1880.16822919992	129.4698789106307	1091.946452261798	1721.846541093931	208.0151822115374	1045.123360597922	1750.335115525663	195.6816635187862	1096.587076803905	1761.276824005115	234.9778382665041	1055.191817382327	2226.080709344243	1060.695300104696	1166.111179482152	1884.448839254551	73.00743591945552	1039.880002874015	1830.298097351441	80.99400009991862	1136.925608270787	2098.790195638207	1038.785771299524	1052.083246956274	1826.096047852781	291.0109643788653	1113.211327801204	1815.192120780183	304.3326846064477	1064.641751396799	1857.638548329882	369.0599015179513	1125.357374413953	1844.702251013088	378.9350008804454	1074.330976984616	2059.56041855294	632.3447539492704	1156.262628660061	2004.259081741552	651.0741874111571	1111.878770459447	2083.317995682268	739.4443329434748	1167.914165030865	2033.407084804104	756.4300670906767	1123.504438830447	
1690	11.26	2250.867614765583	1019.610733158143	902.1567049134735	2175.471874775086	112.5262983789116	967.4193931585889	2202.579600452308	123.5309598907957	918.7634119547042	2188.800901241939	159.6103697012947	960.3449629940718	2180.397455744236	1089.802828665797	864.2098079189763	2390.915662725433	99.0713742317438	965.7970543286874	2336.400123664781	88.85898419543464	870.210525776305	2095.602702626828	1045.870700407157	977.5319522802757	2243.212703736258	254.0549642721759	887.1744440974308	2214.975829067039	259.8670213839706	932.6503614026251	2244.804491032819	333.4535730677111	875.1369141743298	2216.992086455245	340.0674617904944	921.0921528665241	2264.265474723502	663.648891175887	853.2586709576856	2216.328025979678	638.5851097302609	902.9914296814982	2207.217941152781	758.1214007120243	848.6718503302892	2163.725257909335	735.3192620636205	897.9566931788303	2257.393233215028	993.6919669849951	1131.245948850634	1870.179663257328	135.5242374680296	1092.096574986248	1713.961200393541	219.2840041271546	1047.332400729958	1742.509829758363	205.6929979758955	1098.457766135964	1754.368619244242	244.9288116896572	1057.224429803937	2228.890099053489	1064.615279067074	1164.954471428113	1872.38956880223	79.25767575818413	1039.805944343526	1819.38465183789	87.90379576151076	1137.163535251557	2100.208514755057	1041.210971806032	1052.664236140294	1820.477466296194	298.2083885200395	1114.731738383245	1809.390904929574	311.8735674746169	1066.315994879093	1853.900680633174	375.4586363289205	1126.694772300895	1840.535076771739	385.774998578528	1075.870273554918	2060.51837697915	634.9692593234507	1156.17469856786	2004.670677319867	654.1954815146473	1112.626328079511	2084.946838361843	741.8970060142849	1168.296370989566	2034.606545173611	759.3424255481355	1124.616463607223	
1691	11.26666666666667	2251.316226399503	1020.662665019741	901.7514135029836	2192.775064242663	101.7147512129044	967.6664577436969	2219.467074053736	113.914882816438	919.0497504986499	2203.537678989797	149.4385713684663	960.377568772549	2180.710003496825	1091.348546055535	864.1872218837426	2408.592994621919	100.2132869752953	967.0959775299829	2355.187477547574	86.17861806768707	871.3147861220858	2096.487991113564	1047.263740957956	977.9833831113632	2252.757683212214	247.6326574976911	887.8278114933712	2224.38808922068	252.0120633906254	933.3944278013216	2250.257614660535	326.8691478160969	875.8140446736198	2222.207946414209	332.1494219551637	921.808531188489	2258.914999126934	661.6815387179838	854.4406968557072	2211.197212969344	638.0974764794328	905.064173196038	2203.952493594149	757.3821103488943	849.7037950834562	2160.623594324927	736.0141737144619	899.6995041096105	2258.85953415518	995.5725739946081	1130.474589251074	1860.208627007177	141.9870797649905	1091.953700129121	1706.129446588289	230.6053523769387	1049.447748718689	1734.745648965214	215.8058199811981	1100.206803328407	1747.425697544801	254.9606329614079	1059.099874927909	2230.909247410877	1068.224802622915	1163.843513535437	1860.34110694405	86.01366251100929	1039.415977428576	1808.580311730161	95.25086025749715	1137.238346496976	2101.431754298414	1043.080266829582	1053.241210754332	1815.180095702672	305.4831054924559	1116.10816786593	1803.940892435992	319.6310235861745	1067.89013585456	1850.814316890876	381.7038554571118	1127.961820584942	1837.065238298974	392.6126987281557	1077.367479911591	2062.697074172788	636.5080785656843	1156.046688990362	2006.137948686061	656.0182680336658	1113.49437288009	2087.303106129839	743.332440110198	1168.753182451964	2036.347263868685	761.0593508475357	1125.991136434442	
